<svg width="512" height="512" viewBox="0 0 512 512" fill="none" xmlns="http://www.w3.org/2000/svg">
  <circle cx="256" cy="256" r="256" fill="#EF3340"/>
  <g transform="translate(-10.30, 0.20) scale(15.9914)">
    <path d="M22.7164 15.1209H11.015C10.2869 15.1209 9.72528 14.5409 9.72528 13.8609V9.65094C9.72528 8.94094 10.3181 8.39094 11.015 8.39094H23.5693C24.0477 8.39094 24.4326 8.02094 24.4326 7.55094V6.71094H10.5886C9.14281 6.71094 7.98828 7.84094 7.98828 9.25094V14.3309C7.98828 15.7209 9.14281 16.8709 10.5886 16.8709H22.2899C23.018 16.8709 23.5797 17.4509 23.5797 18.1309V22.3409C23.5797 23.0509 22.9868 23.6009 22.2899 23.6009H9.70448C9.22602 23.6009 8.84118 23.9709 8.84118 24.4409V25.2809H22.6852C24.1101 25.2809 25.2855 24.1509 25.2855 22.7409V17.6609C25.3167 16.2709 24.1309 15.1209 22.706 15.1209H22.7164Z" fill="white"/>
    <path d="M21.0937 21.7603H10.526C10.0372 21.7603 9.65234 21.4103 9.65234 20.9703V19.3603C9.65234 18.9103 10.0372 18.5703 10.526 18.5703H21.0937C21.5825 18.5703 21.9674 18.9203 21.9674 19.3603V20.9703C21.9674 21.3903 21.5825 21.7603 21.0937 21.7603Z" fill="white"/>
    <path d="M22.7577 13.44H12.1901C11.7013 13.44 11.3164 13.09 11.3164 12.65V11.04C11.3164 10.59 11.7013 10.25 12.1901 10.25H22.7577C23.2466 10.25 23.6314 10.6 23.6314 11.04V12.65C23.6626 13.07 23.2466 13.44 22.7577 13.44Z" fill="white"/>
  </g>
</svg>
